<svg width="30" height="30" viewBox="0 0 0 0" fill="none" xmlns="http://www.w3.org/2000/svg">
<path d="M74 40.4H40.0166C39.4892 40.4 38.9832 40.1917 38.6087 39.8205L32.8167 34.0795C32.4422 33.7083 31.9362 33.5 31.4088 33.5H18.6575M74 40.4V13C74 11.8954 73.1046 11 72 11H20.6575C19.5529 11 18.6575 11.8954 18.6575 13V33.5M74 40.4V71.1019C74 71.6731 73.7557 72.2172 73.3287 72.5967L65.5683 79.4948C65.2022 79.8202 64.7294 80 64.2396 80H13C11.8954 80 11 79.1046 11 78V38.255V35.5C11 34.3954 11.8954 33.5 13 33.5H18.6575" stroke="black" stroke-width="3"/>
<path d="M26 21H69" stroke="black" stroke-width="3" stroke-linecap="round"/>
<path d="M42 29L69 29" stroke="black" stroke-width="3" stroke-linecap="round"/>
<path d="M60 50.5C60.8284 50.5 61.5 49.8284 61.5 49C61.5 48.1716 60.8284 47.5 60 47.5V50.5ZM11 50.5H60V47.5H11V50.5Z" fill="black"/>
</svg>
